<?xml version="1.0" encoding="UTF-8" standalone="no"?>
<!DOCTYPE svg PUBLIC "-//W3C//DTD SVG 20010904//EN"
              "http://www.w3.org/TR/2001/REC-SVG-20010904/DTD/svg10.dtd">

<svg xmlns="http://www.w3.org/2000/svg"
     width="3.33333in" height="3.33333in"
     viewBox="0 0 1000 1000">
  <path id="Selection"
        fill="none" stroke="black" stroke-width="1"
        d="M 101.00,378.00
           C 101.00,378.00 242.00,378.00 242.00,378.00
             252.38,378.02 252.21,380.66 260.00,387.42
             260.00,387.42 285.00,409.92 285.00,409.92
             285.00,409.92 353.00,470.83 353.00,470.83
             353.00,470.83 392.00,506.00 392.00,506.00
             392.00,506.00 392.00,378.00 392.00,378.00
             392.00,378.00 417.00,398.73 417.00,398.73
             417.00,398.73 464.00,439.13 464.00,439.13
             464.00,439.13 484.98,458.17 484.98,458.17
             484.98,458.17 486.00,466.00 486.00,466.00
             486.00,466.00 486.00,723.00 486.00,723.00
             486.00,723.00 461.00,701.28 461.00,701.28
             461.00,701.28 405.00,651.16 405.00,651.16
             405.00,651.16 250.00,512.17 250.00,512.17
             250.00,512.17 146.00,419.17 146.00,419.17
             146.00,419.17 118.00,394.16 118.00,394.16
             118.00,394.16 101.00,378.00 101.00,378.00 Z
           M 602.00,506.00
           C 602.00,506.00 642.00,471.16 642.00,471.16
             642.00,471.16 711.00,409.42 711.00,409.42
             711.00,409.42 734.00,388.93 734.00,388.93
             741.52,382.10 743.59,378.02 754.00,378.00
             754.00,378.00 895.00,378.00 895.00,378.00
             895.00,378.00 869.00,402.17 869.00,402.17
             869.00,402.17 812.00,453.17 812.00,453.17
             812.00,453.17 641.00,606.17 641.00,606.17
             641.00,606.17 555.00,683.16 555.00,683.16
             555.00,683.16 526.00,709.16 526.00,709.16
             526.00,709.16 508.00,724.00 508.00,724.00
             508.00,724.00 508.00,467.00 508.00,467.00
             508.00,467.00 508.60,460.17 508.60,460.17
             508.60,460.17 515.00,453.15 515.00,453.15
             515.00,453.15 530.00,440.27 530.00,440.27
             530.00,440.27 569.00,406.85 569.00,406.85
             569.00,406.85 602.00,379.00 602.00,379.00
             602.00,379.00 602.00,506.00 602.00,506.00 Z" />
</svg>
