<?xml version="1.0" encoding="UTF-8" standalone="no"?>
<!DOCTYPE svg PUBLIC "-//W3C//DTD SVG 20010904//EN"
              "http://www.w3.org/TR/2001/REC-SVG-20010904/DTD/svg10.dtd">

<svg xmlns="http://www.w3.org/2000/svg"
     width="34.0417in" height="11.9167in"
     viewBox="0 0 2451 858">
  <path id="Selection"
        fill="none" stroke="black" stroke-width="1"
        d="M 495.00,144.00
           C 495.00,144.00 513.00,143.09 513.00,143.09
             513.00,143.09 537.00,143.76 537.00,143.76
             537.00,143.76 545.00,143.76 545.00,143.76
             549.89,143.39 555.13,141.15 559.96,142.65
             566.70,144.73 576.79,155.73 582.08,160.56
             582.08,160.56 623.00,197.00 623.00,197.00
             623.00,197.00 623.00,163.00 623.00,163.00
             623.00,163.00 624.00,144.00 624.00,144.00
             629.95,146.76 636.79,153.27 641.84,157.72
             641.84,157.72 658.96,172.00 658.96,172.00
             663.51,176.00 667.58,178.49 667.96,185.00
             667.96,185.00 667.34,195.00 667.34,195.00
             667.34,195.00 668.00,210.00 668.00,210.00
             668.00,210.00 667.00,227.00 667.00,227.00
             667.00,227.00 667.00,285.00 667.00,285.00
             667.00,287.78 669.23,298.40 664.87,297.72
             661.69,297.22 654.70,289.84 652.00,287.34
             652.00,287.34 623.26,261.73 623.26,261.73
             623.26,261.73 582.00,224.83 582.00,224.83
             582.00,224.83 552.96,198.82 552.96,198.82
             552.96,198.82 531.49,179.00 531.49,179.00
             531.49,179.00 506.00,156.29 506.00,156.29
             501.82,152.64 496.55,149.56 495.00,144.00 Z
           M 721.00,196.00
           C 721.00,196.00 762.96,158.17 762.96,158.17
             762.96,158.17 779.04,144.73 779.04,144.73
             779.04,144.73 787.00,144.00 787.00,144.00
             787.00,144.00 827.00,144.00 827.00,144.00
             827.00,144.00 848.00,145.00 848.00,145.00
             844.87,150.53 840.99,153.01 836.42,157.21
             836.42,157.21 812.09,178.73 812.09,178.73
             812.09,178.73 803.00,187.83 803.00,187.83
             803.00,187.83 795.28,194.21 795.28,194.21
             795.28,194.21 784.85,204.19 784.85,204.19
             784.85,204.19 757.96,228.00 757.96,228.00
             757.96,228.00 724.74,257.74 724.74,257.74
             724.74,257.74 709.32,271.25 709.32,271.25
             709.32,271.25 693.72,285.51 693.72,285.51
             688.42,290.25 682.93,297.03 676.00,299.00
             676.00,299.00 675.14,267.00 675.14,267.00
             675.14,267.00 675.14,214.00 675.14,214.00
             675.14,214.00 675.14,191.00 675.14,191.00
             675.14,191.00 676.20,180.29 676.20,180.29
             676.20,180.29 686.04,170.65 686.04,170.65
             686.04,170.65 706.01,153.54 706.01,153.54
             706.01,153.54 719.00,144.00 719.00,144.00
             719.00,144.00 720.00,161.00 720.00,161.00
             720.00,161.00 721.00,196.00 721.00,196.00 Z
           M 1817.00,161.00
           C 1825.59,164.40 1833.52,175.64 1837.00,183.99
             1840.00,191.16 1842.64,199.12 1842.73,207.00
             1842.73,207.00 1842.73,214.00 1842.73,214.00
             1843.08,227.39 1841.54,241.08 1834.74,253.00
             1833.23,255.65 1830.04,259.50 1828.01,261.91
             1815.76,276.53 1803.82,280.78 1786.00,285.32
             1778.79,287.16 1769.43,288.91 1762.00,289.00
             1762.00,289.00 1737.00,289.00 1737.00,289.00
             1728.40,288.99 1730.17,288.35 1723.00,287.30
             1708.19,285.11 1692.62,281.33 1680.32,272.19
             1665.17,260.93 1657.13,245.58 1655.05,227.00
             1654.72,224.06 1654.09,220.94 1654.32,218.00
             1654.32,218.00 1655.22,211.00 1655.22,211.00
             1655.22,211.00 1655.22,204.00 1655.22,204.00
             1656.33,186.70 1666.81,169.14 1681.00,159.46
             1681.00,159.46 1688.00,155.68 1688.00,155.68
             1708.71,144.78 1725.20,144.00 1748.00,144.00
             1760.08,144.00 1771.06,144.09 1783.00,146.37
             1789.85,147.68 1796.59,149.50 1803.00,152.29
             1809.34,155.04 1811.96,158.34 1819.00,158.00
             1819.00,158.00 1819.00,159.00 1819.00,159.00
             1819.00,159.00 1817.00,161.00 1817.00,161.00 Z
           M 143.00,146.00
           C 153.38,144.14 153.12,145.98 163.00,146.00
             163.00,146.00 197.00,146.00 197.00,146.00
             197.00,146.00 248.00,146.00 248.00,146.00
             261.29,146.00 277.32,146.05 290.00,150.31
             299.67,153.56 309.99,162.89 312.53,173.00
             312.53,173.00 313.17,181.00 313.17,181.00
             314.03,190.03 314.01,196.00 308.90,204.00
             303.37,212.64 296.40,214.45 289.00,220.00
             296.41,220.36 303.54,223.03 307.00,230.00
             307.00,230.00 311.00,228.00 311.00,228.00
             310.05,233.24 313.75,240.31 314.84,246.00
             314.84,246.00 314.84,275.00 314.84,275.00
             315.12,282.01 319.26,286.32 311.96,286.88
             311.96,286.88 308.00,286.88 308.00,286.88
             308.00,286.88 272.00,286.88 272.00,286.88
             270.30,286.99 267.64,287.03 266.04,286.88
             258.30,284.32 261.93,274.03 262.00,268.00
             262.16,253.30 258.13,244.03 242.00,244.00
             242.00,244.00 195.00,244.00 195.00,244.00
             196.52,253.11 196.00,264.60 196.00,274.00
             196.00,276.48 196.45,283.47 195.01,285.26
             193.30,287.38 188.50,287.00 186.00,287.00
             186.00,287.00 156.00,287.00 156.00,287.00
             153.46,287.00 146.45,287.44 144.60,285.98
             142.62,284.41 143.00,280.30 143.00,278.00
             143.00,278.00 143.00,146.00 143.00,146.00 Z
           M 391.00,250.00
           C 391.00,250.00 434.00,250.00 434.00,250.00
             434.00,250.00 472.00,250.00 472.00,250.00
             473.94,250.00 477.72,249.75 479.26,250.99
             482.26,253.41 480.02,264.04 480.00,268.00
             479.98,271.76 480.96,282.76 478.40,285.26
             476.29,287.32 471.77,287.00 469.00,287.00
             469.00,287.00 357.00,287.00 357.00,287.00
             353.11,286.97 342.18,287.93 340.02,284.69
             338.79,282.84 339.00,279.19 339.00,277.00
             339.00,277.00 339.00,155.00 339.00,155.00
             339.00,152.62 338.63,147.59 340.74,146.01
             342.09,145.04 350.64,146.00 353.00,146.01
             353.00,146.01 449.00,146.01 449.00,146.01
             449.00,146.01 471.00,146.01 471.00,146.01
             473.14,146.04 475.77,145.96 477.40,147.60
             479.32,149.52 478.99,153.46 479.00,156.00
             479.00,156.00 479.00,175.00 479.00,175.00
             478.86,182.49 476.74,181.99 470.00,182.00
             470.00,182.00 391.00,182.00 391.00,182.00
             391.00,182.00 391.00,197.00 391.00,197.00
             391.00,197.00 466.00,197.00 466.00,197.00
             468.68,197.00 473.37,196.68 475.37,198.74
             477.57,201.02 475.90,210.48 476.04,214.00
             476.20,218.10 478.69,230.23 475.26,233.01
             473.72,234.25 469.94,234.00 468.00,234.00
             468.00,234.00 391.00,234.00 391.00,234.00
             391.00,234.00 391.00,250.00 391.00,250.00 Z
           M 1916.00,210.00
           C 1916.00,210.00 1916.00,226.00 1916.00,226.00
             1916.00,226.00 1916.00,279.00 1916.00,279.00
             1915.97,280.62 1916.04,283.06 1914.98,284.40
             1912.96,286.95 1898.68,286.00 1895.00,286.00
             1895.00,286.00 1872.00,286.00 1872.00,286.00
             1869.91,285.96 1867.56,286.11 1866.02,284.43
             1863.61,281.80 1864.00,273.55 1864.04,270.00
             1864.04,270.00 1864.04,258.00 1864.04,258.00
             1864.04,258.00 1865.00,246.00 1865.00,246.00
             1865.00,246.00 1865.00,208.00 1865.00,208.00
             1865.00,208.00 1865.00,193.00 1865.00,193.00
             1865.00,193.00 1864.00,174.00 1864.00,174.00
             1864.00,174.00 1865.05,156.00 1865.05,156.00
             1864.75,153.61 1863.68,149.58 1865.05,147.57
             1866.67,145.59 1870.76,146.00 1873.00,146.00
             1884.91,145.98 1908.46,146.89 1919.00,145.00
             1923.76,153.20 1938.81,167.81 1946.00,175.00
             1949.92,178.92 1953.45,183.73 1959.00,185.00
             1959.00,185.00 1958.00,189.00 1958.00,189.00
             1958.00,189.00 1969.65,200.24 1969.65,200.24
             1969.65,200.24 1989.90,221.00 1989.90,221.00
             1989.90,221.00 1989.90,169.00 1989.90,169.00
             1989.90,169.00 1989.90,155.00 1989.90,155.00
             1989.80,153.26 1989.09,149.82 1989.90,148.31
             1990.83,145.46 1995.49,146.01 1998.00,146.00
             1998.00,146.00 2034.00,146.00 2034.00,146.00
             2037.32,146.07 2040.62,146.05 2041.13,150.06
             2041.13,150.06 2041.13,161.00 2041.13,161.00
             2041.13,161.00 2041.13,242.00 2041.13,242.00
             2041.00,253.67 2041.86,276.64 2040.00,287.00
             2040.00,287.00 1998.00,287.00 1998.00,287.00
             1998.00,287.00 1990.46,286.18 1990.46,286.18
             1990.46,286.18 1971.80,267.42 1971.80,267.42
             1971.80,267.42 1954.20,248.80 1954.20,248.80
             1954.20,248.80 1943.09,238.01 1943.09,238.01
             1943.09,238.01 1916.00,210.00 1916.00,210.00 Z
           M 915.00,146.23
           C 915.00,146.23 945.00,146.23 945.00,146.23
             945.00,146.23 955.00,146.93 955.00,146.93
             974.71,148.75 992.13,152.65 1007.96,165.51
             1018.83,174.34 1028.81,192.95 1029.00,207.00
             1029.00,207.00 1029.00,228.00 1029.00,228.00
             1028.97,246.08 1018.98,263.22 1005.00,274.18
             980.27,293.57 947.50,291.05 918.00,291.00
             901.75,290.97 875.07,282.88 862.95,271.67
             858.44,267.50 850.76,258.50 848.11,253.00
             845.09,246.72 843.78,239.79 842.79,233.00
             842.06,227.96 841.09,228.59 841.00,222.00
             840.89,213.42 843.02,196.91 845.99,189.00
             847.39,185.25 853.04,176.46 855.59,173.18
             864.34,161.96 882.27,152.74 896.00,149.66
             896.00,149.66 915.00,146.23 915.00,146.23 Z
           M 1207.00,259.00
           C 1209.23,249.03 1207.44,253.90 1205.12,245.00
             1202.81,236.14 1201.01,230.33 1201.00,221.00
             1201.00,221.00 1201.00,174.00 1201.00,174.00
             1201.00,174.00 1201.00,154.00 1201.00,154.00
             1201.04,151.86 1200.96,149.23 1202.60,147.60
             1204.52,145.68 1208.46,146.01 1211.00,146.00
             1211.00,146.00 1244.00,146.00 1244.00,146.00
             1246.31,146.00 1250.25,145.59 1251.83,147.57
             1254.82,151.34 1253.06,162.36 1253.00,167.00
             1253.00,167.00 1253.00,210.00 1253.00,210.00
             1253.04,219.09 1255.54,230.22 1262.18,236.81
             1273.42,247.96 1303.65,248.13 1314.79,236.81
             1321.20,230.31 1322.99,221.79 1323.00,213.00
             1323.00,213.00 1323.00,155.00 1323.00,155.00
             1323.02,146.36 1323.36,146.02 1332.00,146.00
             1332.00,146.00 1375.00,146.00 1375.00,146.00
             1375.00,146.00 1375.00,185.00 1375.00,185.00
             1375.00,185.00 1375.00,224.00 1375.00,224.00
             1374.86,238.03 1369.60,253.10 1360.53,263.99
             1343.46,284.50 1311.18,289.04 1286.00,289.00
             1275.29,288.98 1264.45,287.18 1254.00,285.09
             1236.99,281.70 1218.29,271.97 1210.00,256.00
             1210.00,256.00 1207.00,259.00 1207.00,259.00 Z
           M 1398.00,188.00
           C 1398.00,188.00 1396.79,184.00 1396.79,184.00
             1396.79,184.00 1396.79,157.00 1396.79,157.00
             1396.79,157.00 1397.69,147.60 1397.69,147.60
             1397.69,147.60 1406.00,146.00 1406.00,146.00
             1406.00,146.00 1511.00,146.00 1511.00,146.00
             1511.00,146.00 1543.00,146.00 1543.00,146.00
             1543.00,146.00 1561.00,147.00 1561.00,147.00
             1557.44,156.50 1559.00,176.17 1559.00,187.00
             1559.00,187.00 1520.00,187.00 1520.00,187.00
             1509.98,187.17 1516.05,189.52 1504.00,187.00
             1504.00,187.00 1504.00,263.00 1504.00,263.00
             1504.00,263.00 1504.00,279.00 1504.00,279.00
             1504.00,279.00 1502.26,286.01 1502.26,286.01
             1502.26,286.01 1495.00,287.00 1495.00,287.00
             1495.00,287.00 1449.00,288.00 1449.00,288.00
             1453.20,278.55 1452.00,272.06 1452.00,262.00
             1452.00,262.00 1452.00,231.00 1452.00,231.00
             1452.00,231.00 1451.00,216.00 1451.00,216.00
             1451.00,216.00 1451.00,196.00 1451.00,196.00
             1450.98,193.65 1451.19,190.39 1449.40,188.60
             1447.48,186.68 1443.54,187.01 1441.00,187.00
             1431.48,186.98 1405.71,186.13 1398.00,188.00 Z
           M 1581.60,147.02
           C 1585.82,145.22 1592.33,146.00 1597.00,146.00
             1597.00,146.00 1627.00,146.00 1627.00,146.00
             1635.48,146.15 1633.02,148.50 1633.00,159.00
             1633.00,159.00 1633.00,247.00 1633.00,247.00
             1633.00,247.00 1633.00,274.00 1633.00,274.00
             1633.00,276.41 1633.40,282.60 1631.98,284.40
             1630.41,286.38 1626.30,286.00 1624.00,286.00
             1624.00,286.00 1599.00,286.00 1599.00,286.00
             1595.05,286.05 1583.46,288.49 1581.02,285.40
             1579.77,283.81 1580.00,279.99 1580.00,278.00
             1580.00,278.00 1580.00,183.00 1580.00,183.00
             1580.00,183.00 1580.00,158.00 1580.00,158.00
             1580.00,154.13 1579.29,150.24 1581.60,147.02 Z
           M 1185.94,247.00
           C 1185.94,247.00 1185.94,272.00 1185.94,272.00
             1186.01,275.49 1187.55,285.22 1185.94,287.43
             1184.28,289.41 1180.29,289.00 1178.00,289.00
             1178.00,289.00 1096.00,289.00 1096.00,289.00
             1096.00,289.00 1065.00,289.00 1065.00,289.00
             1062.40,289.00 1054.58,289.50 1052.74,288.01
             1050.62,286.30 1051.00,281.50 1051.00,279.00
             1051.00,279.00 1051.00,158.00 1051.00,158.00
             1051.00,156.24 1050.87,152.88 1051.57,151.34
             1053.96,146.14 1064.17,148.98 1069.00,149.00
             1077.88,149.04 1097.43,148.16 1105.00,150.00
             1103.51,161.27 1103.98,172.64 1104.00,184.00
             1104.00,184.00 1104.96,197.00 1104.96,197.00
             1104.96,197.00 1104.04,207.00 1104.04,207.00
             1104.04,207.00 1104.04,224.00 1104.04,224.00
             1104.00,228.58 1102.72,243.43 1106.43,245.98
             1108.24,247.22 1111.84,247.00 1114.00,247.00
             1114.00,247.00 1185.94,247.00 1185.94,247.00 Z
           M 881.00,151.00
           C 881.00,151.00 882.00,151.00 882.00,151.00
             882.00,151.00 881.00,152.00 881.00,152.00
             881.00,152.00 881.00,151.00 881.00,151.00 Z
           M 195.00,204.00
           C 195.00,204.00 246.00,204.00 246.00,204.00
             251.79,203.90 258.71,201.84 259.43,195.00
             260.39,185.74 248.68,184.01 242.00,184.00
             242.00,184.00 195.00,184.00 195.00,184.00
             195.00,184.00 195.00,204.00 195.00,204.00 Z
           M 1740.00,184.29
           C 1732.16,185.59 1721.70,189.06 1716.21,195.06
             1706.19,206.02 1707.94,229.63 1718.67,239.57
             1723.93,244.45 1738.85,248.51 1746.00,248.20
             1749.34,248.06 1749.85,247.09 1756.00,247.00
             1765.78,246.87 1773.57,245.27 1780.66,237.71
             1789.81,227.96 1790.42,206.10 1782.17,195.73
             1772.95,184.14 1753.63,183.00 1740.00,184.29 Z
           M 928.00,187.28
           C 918.16,188.70 911.91,188.66 903.90,196.29
             894.20,206.03 894.40,229.61 903.90,239.68
             911.81,248.49 924.52,250.73 936.00,250.99
             944.80,251.19 957.65,248.41 964.48,242.67
             977.09,232.07 978.63,208.01 966.81,196.19
             957.60,186.97 940.24,186.15 928.00,187.28 Z
           M 1818.00,273.00
           C 1818.00,273.00 1819.00,273.00 1819.00,273.00
             1819.00,273.00 1818.00,274.00 1818.00,274.00
             1818.00,274.00 1818.00,273.00 1818.00,273.00 Z
           M 1254.00,289.00
           C 1254.00,289.00 1255.00,289.00 1255.00,289.00
             1255.00,289.00 1254.00,290.00 1254.00,290.00
             1254.00,290.00 1254.00,289.00 1254.00,289.00 Z
           M 1867.00,289.00
           C 1867.00,289.00 1868.00,289.00 1868.00,289.00
             1868.00,289.00 1867.00,290.00 1867.00,290.00
             1867.00,290.00 1867.00,289.00 1867.00,289.00 Z
           M 573.00,345.00
           C 573.00,345.00 578.00,346.00 578.00,346.00
             578.00,346.00 573.00,345.00 573.00,345.00 Z
           M 768.00,431.00
           C 768.00,431.00 821.00,431.00 821.00,431.00
             835.29,431.00 837.93,429.56 838.00,440.00
             838.03,444.23 839.25,458.44 835.71,460.88
             833.56,461.98 826.03,461.00 823.00,460.88
             823.00,460.88 789.00,460.88 789.00,460.88
             789.00,460.88 773.00,462.00 773.00,462.00
             773.00,462.00 749.00,462.00 749.00,462.00
             744.26,462.00 729.72,463.32 726.99,459.43
             725.76,457.67 726.00,454.11 725.79,452.00
             725.79,452.00 725.79,376.00 725.79,376.00
             726.00,371.93 726.28,362.47 725.79,359.00
             724.99,356.36 723.23,353.15 725.79,350.85
             727.51,349.01 731.51,349.04 734.00,349.00
             734.00,349.00 753.00,349.00 753.00,349.00
             753.00,349.00 804.00,349.00 804.00,349.00
             804.00,349.00 815.00,349.68 815.00,349.68
             819.22,349.36 833.19,348.30 836.36,351.02
             838.19,352.59 837.03,358.52 837.00,361.00
             836.92,367.79 836.78,371.21 838.00,378.00
             838.00,378.00 836.00,379.00 836.00,379.00
             836.00,379.00 836.00,380.00 836.00,380.00
             836.00,380.00 809.00,379.00 809.00,379.00
             809.00,379.00 768.00,379.00 768.00,379.00
             768.00,379.00 768.00,388.00 768.00,388.00
             768.00,388.00 817.00,389.00 817.00,389.00
             820.36,389.00 831.87,388.09 833.83,390.57
             835.16,392.26 834.99,395.92 835.00,398.00
             835.00,398.00 835.00,419.00 835.00,419.00
             835.00,419.00 768.00,419.00 768.00,419.00
             768.00,419.00 768.00,431.00 768.00,431.00 Z
           M 997.00,414.00
           C 997.00,414.00 995.40,426.00 995.40,426.00
             993.22,434.95 987.96,442.75 980.99,448.68
             972.28,456.08 955.37,461.85 944.00,462.00
             944.00,462.00 909.00,462.00 909.00,462.00
             898.74,461.98 881.52,456.73 873.00,450.94
             867.93,447.50 863.74,442.91 860.14,438.00
             856.07,432.44 855.34,431.79 853.58,425.00
             851.14,415.59 850.89,412.62 851.00,403.00
             851.05,399.15 852.97,387.67 854.04,384.00
             854.90,381.08 856.92,375.45 858.54,373.00
             868.14,358.56 890.86,348.03 908.00,348.00
             908.00,348.00 942.00,348.00 942.00,348.00
             947.95,348.10 947.14,348.84 952.00,349.76
             956.66,350.64 961.48,351.19 966.00,352.75
             974.91,355.83 985.27,362.82 990.46,370.75
             992.68,374.14 993.63,377.12 994.62,381.00
             995.43,384.15 997.65,392.84 995.22,395.37
             993.43,397.24 983.83,397.00 981.00,397.00
             974.83,397.01 956.46,398.36 952.31,394.49
             950.21,392.52 950.21,390.64 950.00,388.00
             950.00,388.00 931.00,380.26 931.00,380.26
             931.00,380.26 910.00,382.00 910.00,382.00
             910.00,382.00 911.00,385.00 911.00,385.00
             904.91,384.45 901.85,387.92 899.06,393.00
             894.16,401.93 895.98,414.62 903.19,421.81
             912.04,430.65 928.88,430.67 940.00,426.79
             940.00,426.79 950.00,422.00 950.00,422.00
             950.00,422.00 952.00,414.00 952.00,414.00
             962.96,414.00 988.07,411.46 997.00,414.00 Z
           M 1057.00,348.71
           C 1062.96,347.43 1074.43,348.00 1081.00,348.00
             1101.09,348.00 1120.01,347.84 1136.99,360.49
             1148.70,369.21 1156.80,383.22 1157.00,398.00
             1157.00,398.00 1157.00,413.00 1157.00,413.00
             1156.81,427.36 1146.54,442.96 1135.00,450.95
             1124.92,457.92 1110.16,461.98 1098.00,462.00
             1098.00,462.00 1082.00,463.73 1082.00,463.73
             1077.67,463.53 1077.98,462.02 1068.00,462.00
             1068.00,462.00 1061.00,462.00 1061.00,462.00
             1050.23,461.85 1030.37,453.16 1022.73,445.76
             1014.02,437.33 1007.43,422.15 1007.04,410.00
             1007.04,410.00 1007.91,400.00 1007.91,400.00
             1008.74,387.95 1009.33,381.59 1016.52,371.00
             1026.56,356.22 1041.14,353.39 1057.00,348.71 Z
           M 1216.00,427.00
           C 1216.00,427.00 1216.00,453.00 1216.00,453.00
             1215.95,455.63 1215.97,458.56 1213.69,460.36
             1211.74,461.91 1208.42,461.49 1206.00,461.83
             1206.00,461.83 1187.00,461.83 1187.00,461.83
             1183.89,462.00 1176.95,462.66 1174.74,460.40
             1172.68,458.29 1173.00,453.77 1173.01,451.00
             1173.01,451.00 1173.01,361.00 1173.01,361.00
             1172.97,358.60 1171.91,352.23 1173.01,350.61
             1174.77,348.10 1183.68,349.99 1187.00,350.00
             1187.00,350.00 1249.00,349.00 1249.00,349.00
             1262.75,349.00 1276.80,348.70 1290.00,353.00
             1305.75,358.14 1309.10,367.52 1309.00,383.00
             1308.98,386.11 1309.05,388.02 1307.87,391.00
             1304.52,399.44 1298.68,402.88 1292.00,408.00
             1298.83,408.89 1306.49,415.43 1308.49,422.04
             1308.49,422.04 1309.46,430.00 1309.46,430.00
             1310.24,434.40 1311.18,436.16 1310.91,441.00
             1310.71,444.47 1309.91,446.20 1310.18,450.00
             1310.83,459.06 1312.91,460.98 1302.00,461.00
             1302.00,461.00 1275.00,461.00 1275.00,461.00
             1272.36,460.96 1269.32,461.10 1267.82,458.44
             1264.47,452.48 1271.71,437.80 1260.95,430.30
             1254.95,426.12 1249.86,427.00 1243.00,427.00
             1243.00,427.00 1216.00,427.00 1216.00,427.00 Z
           M 1479.00,422.00
           C 1479.00,422.00 1518.00,422.00 1518.00,422.00
             1526.66,422.15 1522.92,425.04 1528.14,429.43
             1530.62,431.52 1533.90,432.40 1537.00,433.11
             1542.92,434.48 1558.08,434.22 1562.76,430.30
             1564.11,429.17 1565.00,427.83 1564.92,426.00
             1564.64,419.62 1553.58,419.01 1549.00,419.00
             1549.00,419.00 1529.00,418.37 1529.00,418.37
             1524.11,418.63 1524.16,417.59 1520.00,417.13
             1512.17,416.25 1504.12,415.61 1497.00,411.78
             1486.45,406.11 1483.35,401.16 1480.57,390.00
             1479.91,387.39 1479.11,385.83 1479.14,383.00
             1479.18,380.51 1479.98,378.38 1480.49,376.00
             1481.90,369.49 1481.83,367.57 1486.63,362.17
             1491.86,356.28 1501.30,351.85 1509.00,350.37
             1509.00,350.37 1517.00,349.68 1517.00,349.68
             1523.16,348.68 1521.12,348.04 1529.00,348.00
             1549.76,347.90 1564.57,346.73 1585.00,352.46
             1587.94,353.28 1590.38,354.77 1593.00,356.29
             1595.60,357.81 1598.51,359.38 1600.67,361.48
             1606.94,367.55 1609.42,377.65 1608.00,386.00
             1608.00,386.00 1573.00,386.00 1573.00,386.00
             1570.70,386.00 1567.44,386.24 1565.45,384.98
             1563.24,383.57 1562.37,380.63 1558.00,378.28
             1553.82,376.03 1549.59,376.01 1545.00,376.00
             1540.42,375.99 1531.79,375.20 1528.15,377.89
             1524.82,380.34 1524.73,383.67 1528.15,386.08
             1531.97,388.78 1537.52,388.99 1542.00,389.00
             1542.00,389.00 1566.00,389.00 1566.00,389.00
             1573.60,389.01 1571.39,389.31 1578.00,390.63
             1589.17,392.86 1601.36,395.93 1607.17,407.00
             1610.70,413.73 1610.03,419.71 1610.00,427.00
             1609.92,444.68 1598.65,455.32 1582.00,459.40
             1582.00,459.40 1575.00,460.46 1575.00,460.46
             1568.38,461.66 1569.24,461.99 1562.00,462.00
             1562.00,462.00 1526.00,462.00 1526.00,462.00
             1517.95,461.99 1510.54,459.85 1503.00,457.17
             1489.39,452.35 1479.03,443.32 1479.00,428.00
             1479.00,428.00 1479.00,422.00 1479.00,422.00 Z
           M 569.00,351.00
           C 571.31,350.25 573.57,349.45 576.00,349.19
             576.00,349.19 602.00,350.00 602.00,350.00
             602.00,350.00 671.00,350.00 671.00,350.00
             684.61,350.03 699.91,355.16 705.16,369.00
             706.39,372.24 706.01,379.29 706.00,383.00
             705.98,390.80 703.24,397.54 696.96,402.59
             693.94,405.01 692.29,404.86 689.00,408.00
             709.58,410.82 707.98,433.69 708.00,449.00
             708.01,454.13 709.95,460.48 702.99,461.12
             702.99,461.12 692.00,461.12 692.00,461.12
             692.00,461.12 677.00,461.12 677.00,461.12
             673.60,461.04 669.09,462.03 666.43,459.53
             663.64,456.91 664.01,452.50 663.76,449.00
             664.00,446.10 664.20,440.59 663.76,438.00
             660.27,425.45 645.84,427.00 636.00,427.00
             631.81,427.00 617.22,425.97 614.60,428.60
             612.81,430.39 613.02,433.65 613.00,436.00
             612.94,445.37 612.34,449.81 615.00,459.00
             615.00,459.00 609.00,461.85 609.00,461.85
             609.00,461.85 581.00,461.85 581.00,461.85
             581.00,461.85 572.57,459.99 572.57,459.99
             572.57,459.99 571.00,452.00 571.00,452.00
             571.00,452.00 571.00,391.00 571.00,391.00
             571.00,391.00 571.00,363.00 571.00,363.00
             571.00,363.00 569.00,351.00 569.00,351.00 Z
           M 1327.00,351.00
           C 1334.07,347.73 1344.20,349.00 1352.00,349.00
             1352.00,349.00 1400.00,349.00 1400.00,349.00
             1411.77,349.14 1427.20,351.67 1438.00,356.35
             1448.02,360.69 1456.21,367.41 1461.66,377.00
             1470.90,393.24 1469.09,425.50 1456.74,439.96
             1442.73,456.38 1418.54,460.97 1398.00,461.00
             1398.00,461.00 1337.00,461.78 1337.00,461.78
             1324.42,462.58 1327.99,452.82 1328.00,443.00
             1328.00,443.00 1328.00,399.00 1328.00,399.00
             1328.00,399.00 1327.00,382.00 1327.00,382.00
             1327.00,382.00 1327.00,370.00 1327.00,370.00
             1327.05,360.21 1328.92,361.74 1327.00,351.00 Z
           M 1074.00,380.45
           C 1066.82,382.44 1060.65,383.75 1055.99,390.29
             1052.11,395.73 1051.91,401.62 1052.00,408.00
             1052.21,422.10 1065.40,428.85 1078.00,429.00
             1087.01,429.10 1096.43,429.55 1104.08,423.88
             1114.40,416.23 1115.74,396.09 1105.94,387.47
             1098.08,380.57 1084.01,378.91 1074.00,380.45 Z
           M 1216.00,380.00
           C 1216.00,383.18 1215.15,393.04 1217.60,394.98
             1219.49,396.47 1228.28,396.03 1231.00,396.00
             1231.00,396.00 1242.00,395.08 1242.00,395.08
             1247.98,395.08 1257.61,397.06 1262.57,392.44
             1264.08,391.04 1264.82,389.06 1264.62,387.01
             1264.00,380.73 1256.91,380.06 1252.00,380.00
             1252.00,380.00 1236.00,380.00 1236.00,380.00
             1236.00,380.00 1216.00,380.00 1216.00,380.00 Z
           M 1371.00,429.00
           C 1381.08,430.81 1404.11,430.26 1412.82,424.82
             1421.57,419.35 1422.11,412.24 1422.00,403.00
             1421.91,395.88 1420.30,390.90 1414.48,386.38
             1409.58,382.57 1405.71,382.49 1400.00,381.71
             1400.00,381.71 1391.00,380.08 1391.00,380.08
             1391.00,380.08 1371.00,380.08 1371.00,380.08
             1371.00,380.08 1371.00,429.00 1371.00,429.00 Z
           M 614.00,395.00
           C 614.00,395.00 631.00,396.00 631.00,396.00
             631.00,396.00 645.00,396.00 645.00,396.00
             650.60,395.99 660.78,396.23 661.85,388.96
             663.10,380.49 654.94,381.01 649.00,381.00
             649.00,381.00 615.00,381.00 615.00,381.00
             615.00,381.00 614.00,395.00 614.00,395.00 Z
           M 1265.00,591.05
           C 1265.00,591.05 1281.00,591.05 1281.00,591.05
             1281.00,591.05 1284.94,591.05 1284.94,591.05
             1291.90,592.32 1287.19,600.46 1290.02,604.69
             1292.44,608.29 1296.63,605.41 1299.40,608.40
             1301.55,610.72 1301.93,623.98 1299.40,625.98
             1297.60,627.40 1291.41,627.00 1289.00,627.00
             1289.00,627.00 1289.00,645.00 1289.00,645.00
             1291.57,645.00 1297.46,644.62 1299.41,646.17
             1301.81,648.05 1301.77,663.10 1299.41,664.98
             1297.41,666.56 1286.99,666.01 1284.00,666.00
             1277.06,665.99 1269.22,664.59 1265.82,657.58
             1265.08,656.05 1264.83,653.72 1264.41,652.00
             1261.54,640.28 1263.96,636.31 1263.15,631.06
             1262.37,626.04 1256.83,627.00 1253.00,627.00
             1253.00,627.00 1253.00,607.00 1253.00,607.00
             1255.36,607.00 1259.73,607.28 1261.69,605.98
             1264.41,604.16 1264.73,594.38 1265.00,591.05 Z
           M 1282.00,598.00
           C 1282.00,598.00 1270.00,598.00 1270.00,598.00
             1270.00,601.74 1271.05,610.73 1267.69,612.98
             1265.73,614.28 1261.36,614.00 1259.00,614.00
             1259.00,614.00 1259.00,620.00 1259.00,620.00
             1261.36,620.00 1265.73,619.72 1267.69,621.02
             1270.05,622.60 1269.95,625.48 1270.00,628.00
             1270.12,634.90 1268.52,651.36 1272.87,656.43
             1276.23,660.35 1288.89,659.00 1294.00,659.00
             1294.00,659.00 1294.00,652.00 1294.00,652.00
             1279.44,650.76 1281.98,642.38 1282.00,631.00
             1282.00,628.23 1281.68,623.71 1283.74,621.60
             1285.82,619.47 1291.15,620.00 1294.00,620.00
             1294.00,620.00 1294.00,613.89 1294.00,613.89
             1294.00,613.89 1288.00,613.89 1288.00,613.89
             1280.22,612.34 1282.00,603.96 1282.00,598.00 Z
           M 811.00,604.00
           C 811.00,604.00 812.00,604.00 812.00,604.00
             812.00,604.00 811.00,605.00 811.00,605.00
             811.00,605.00 811.00,604.00 811.00,604.00 Z
           M 912.00,604.00
           C 912.00,604.00 913.00,604.00 913.00,604.00
             913.00,604.00 912.00,605.00 912.00,605.00
             912.00,605.00 912.00,604.00 912.00,604.00 Z
           M 841.00,682.00
           C 833.90,684.66 829.44,684.10 822.00,684.00
             819.85,683.97 816.48,684.11 814.99,682.26
             813.83,680.82 814.01,677.78 814.00,676.00
             814.00,676.00 814.00,622.00 814.00,622.00
             813.99,618.78 812.49,609.85 814.74,607.99
             816.25,606.75 820.08,607.00 822.00,607.00
             822.00,607.00 832.00,607.00 832.00,607.00
             832.00,607.00 841.09,608.14 841.09,608.14
             841.09,608.14 850.00,606.43 850.00,606.43
             859.19,605.09 869.38,605.80 876.82,611.93
             891.25,623.82 890.65,651.81 875.00,662.42
             873.29,663.58 868.90,665.40 866.83,665.65
             864.01,666.27 847.65,666.19 845.00,665.65
             842.87,665.01 840.95,663.97 839.00,663.00
             837.90,667.98 838.50,677.52 841.00,682.00 Z
           M 918.00,610.00
           C 928.29,603.65 944.91,603.69 950.75,616.04
             954.05,623.01 953.00,631.44 953.00,639.00
             949.36,639.00 932.53,639.44 930.35,638.43
             925.86,636.34 928.64,627.24 923.08,627.90
             918.14,628.48 918.01,636.48 918.00,640.00
             918.00,640.00 918.00,666.00 918.00,666.00
             918.00,666.00 893.97,666.00 893.97,666.00
             893.97,666.00 893.97,626.00 893.97,626.00
             893.97,626.00 893.97,609.29 893.97,609.29
             894.94,606.57 898.65,607.01 901.00,607.00
             906.20,606.97 914.78,605.18 918.00,610.00 Z
           M 981.00,606.46
           C 994.09,604.65 1013.48,605.29 1022.74,616.04
             1030.21,624.72 1031.82,648.42 1024.53,657.47
             1021.68,661.02 1013.28,664.97 1008.83,665.96
             1008.83,665.96 1002.01,665.96 1002.01,665.96
             1002.01,665.96 993.91,667.31 993.91,667.31
             993.91,667.31 986.00,666.17 986.00,666.17
             977.77,665.29 972.47,665.65 965.43,659.45
             954.37,649.71 952.56,628.73 961.79,617.17
             966.50,611.26 973.82,608.06 981.00,606.46 Z
           M 1045.00,642.00
           C 1027.85,636.44 1029.41,615.71 1043.00,609.09
             1051.56,604.92 1056.82,606.00 1066.00,606.00
             1073.42,606.00 1078.96,605.47 1086.00,608.59
             1099.19,614.44 1098.04,625.89 1095.40,627.98
             1094.24,628.90 1088.33,629.34 1086.00,630.00
             1086.00,630.00 1091.00,630.00 1091.00,630.00
             1093.84,635.47 1098.01,635.97 1098.88,644.09
             1099.98,654.25 1091.51,663.35 1082.00,665.54
             1079.44,666.13 1076.62,665.99 1074.00,666.13
             1064.11,666.05 1067.04,667.95 1056.00,666.13
             1050.64,665.43 1050.84,666.70 1045.00,663.98
             1038.64,661.02 1035.12,659.03 1033.04,652.00
             1032.35,649.65 1031.64,646.70 1033.60,644.74
             1035.51,642.83 1041.74,642.93 1045.00,642.00 Z
           M 1173.00,644.00
           C 1176.11,648.65 1172.59,655.08 1168.85,658.53
             1161.86,664.99 1156.70,665.34 1148.00,666.17
             1148.00,666.17 1139.00,667.00 1139.00,667.00
             1131.68,667.08 1123.10,666.49 1116.58,662.96
             1104.42,656.38 1101.94,647.97 1102.00,635.00
             1102.02,631.28 1102.06,628.62 1103.22,625.00
             1109.17,606.40 1127.87,605.81 1144.00,606.00
             1149.71,606.07 1156.92,607.81 1161.91,610.63
             1171.98,616.32 1178.51,633.54 1173.00,644.00 Z
           M 1181.00,666.00
           C 1181.00,666.00 1181.00,615.00 1181.00,615.00
             1181.06,606.87 1182.27,607.02 1190.00,607.07
             1190.00,607.07 1201.00,607.07 1201.00,607.07
             1201.00,607.07 1208.00,608.42 1208.00,608.42
             1208.00,608.42 1218.00,606.18 1218.00,606.18
             1230.66,604.66 1245.21,608.06 1249.07,622.00
             1250.06,625.56 1249.99,628.39 1250.00,632.00
             1250.00,632.00 1250.00,657.00 1250.00,657.00
             1249.99,659.08 1250.16,662.74 1248.83,664.43
             1247.36,666.29 1244.14,665.99 1242.00,666.00
             1231.75,666.06 1224.08,669.21 1224.00,656.00
             1224.00,656.00 1224.00,629.00 1224.00,629.00
             1221.00,628.36 1216.91,626.71 1214.00,627.33
             1202.89,629.72 1206.05,649.45 1206.00,658.00
             1205.99,659.78 1206.17,662.82 1205.01,664.26
             1203.40,666.25 1199.33,665.99 1197.00,666.00
             1197.00,666.00 1181.00,666.00 1181.00,666.00 Z
           M 1316.00,642.00
           C 1300.20,637.23 1300.78,615.71 1315.00,609.23
             1325.14,604.40 1348.88,604.67 1359.00,609.23
             1368.97,613.97 1370.86,625.24 1367.40,627.98
             1366.24,628.90 1360.33,629.34 1358.00,630.00
             1364.71,631.28 1369.73,635.80 1370.22,643.00
             1370.36,645.02 1369.66,647.02 1369.32,649.00
             1368.48,653.83 1369.00,655.05 1365.33,658.95
             1357.04,667.77 1352.43,665.04 1345.00,666.26
             1345.00,666.26 1338.00,667.86 1338.00,667.86
             1334.30,668.18 1331.50,667.08 1328.00,666.46
             1328.00,666.46 1321.00,665.54 1321.00,665.54
             1310.03,662.96 1304.27,654.98 1304.00,644.00
             1304.00,644.00 1316.00,642.00 1316.00,642.00 Z
           M 918.00,621.00
           C 923.52,620.02 926.90,619.34 931.28,623.76
             934.94,627.47 933.51,630.77 939.02,631.77
             945.51,632.96 946.83,630.89 946.15,625.00
             945.91,622.94 945.79,621.07 944.69,619.24
             938.72,609.33 922.91,611.20 918.00,621.00 Z
           M 1022.00,637.00
           C 1021.98,631.89 1021.42,626.37 1018.42,622.02
             1012.01,612.71 995.20,611.20 985.00,612.92
             978.17,614.07 969.34,616.21 966.13,623.04
             960.93,634.10 961.76,648.60 972.42,656.13
             975.86,658.56 979.16,658.65 983.00,659.59
             992.19,661.83 1007.33,661.30 1015.56,656.30
             1018.19,654.71 1020.12,652.38 1022.00,650.00
             1022.00,650.00 1015.00,650.00 1015.00,650.00
             1004.04,650.06 1005.96,653.08 999.00,654.30
             996.40,654.94 994.54,654.43 992.00,654.30
             981.82,653.11 975.75,648.87 975.00,638.00
             975.00,638.00 1022.00,637.00 1022.00,637.00 Z
           M 1090.00,621.86
           C 1088.25,616.73 1084.18,614.95 1079.00,613.90
             1069.05,612.00 1061.97,612.36 1052.00,613.90
             1045.69,614.83 1040.48,616.89 1039.42,624.00
             1038.45,630.52 1043.27,634.81 1049.00,636.45
             1058.68,639.23 1074.09,636.91 1077.97,644.10
             1080.89,649.50 1076.71,653.04 1072.00,654.53
             1064.86,656.80 1058.29,655.49 1053.00,650.00
             1053.00,650.00 1041.00,650.00 1041.00,650.00
             1042.63,657.62 1047.25,657.90 1054.00,659.40
             1064.66,662.01 1066.63,661.29 1077.00,659.40
             1083.75,658.02 1088.61,657.38 1091.09,649.96
             1096.45,633.97 1076.33,633.06 1066.00,633.00
             1061.29,632.97 1056.72,632.48 1053.31,628.74
             1050.11,625.22 1051.20,620.94 1055.30,618.70
             1059.98,616.44 1067.14,616.73 1071.96,618.70
             1074.61,619.57 1075.61,621.07 1078.17,621.86
             1078.17,621.86 1090.00,621.86 1090.00,621.86 Z
           M 1168.00,637.00
           C 1167.40,629.56 1166.78,623.98 1160.96,618.70
             1155.95,614.16 1153.13,614.48 1147.00,613.57
             1143.42,613.04 1139.60,612.05 1136.00,612.32
             1128.41,612.90 1118.37,614.93 1113.30,621.04
             1109.00,626.23 1108.92,632.66 1109.00,639.00
             1109.18,652.04 1116.27,656.98 1128.00,659.59
             1137.66,661.34 1139.03,661.73 1149.00,659.59
             1156.82,658.29 1162.74,658.09 1166.00,650.15
             1166.00,650.15 1155.00,650.15 1155.00,650.15
             1147.85,651.86 1152.72,654.17 1138.00,654.00
             1131.73,653.92 1128.54,653.07 1124.34,647.98
             1119.07,641.61 1120.63,637.16 1129.00,637.00
             1129.00,637.00 1168.00,637.00 1168.00,637.00 Z
           M 1243.00,659.00
           C 1243.00,659.00 1243.00,635.00 1243.00,635.00
             1243.00,630.85 1243.45,625.76 1241.55,622.00
             1238.97,616.93 1234.25,614.69 1229.00,613.29
             1226.80,612.70 1224.28,612.20 1222.00,612.41
             1220.13,612.58 1213.71,614.29 1212.00,615.07
             1207.19,617.28 1204.01,621.70 1200.00,625.00
             1200.00,625.00 1199.00,614.00 1199.00,614.00
             1199.00,614.00 1188.00,614.00 1188.00,614.00
             1188.00,623.74 1188.88,651.27 1187.00,659.00
             1187.00,659.00 1199.00,659.00 1199.00,659.00
             1199.00,649.73 1196.98,633.61 1203.10,626.44
             1210.97,617.23 1225.39,618.07 1230.16,630.04
             1231.15,632.52 1230.99,635.37 1231.00,638.00
             1231.00,638.00 1231.00,659.00 1231.00,659.00
             1231.00,659.00 1243.00,659.00 1243.00,659.00 Z
           M 1362.00,622.00
           C 1360.11,615.32 1355.07,614.62 1349.00,613.59
             1338.05,612.13 1334.22,611.06 1323.00,613.59
             1318.34,614.44 1313.30,616.08 1311.65,621.04
             1306.02,638.02 1328.38,638.38 1339.00,639.04
             1342.40,639.25 1345.20,639.73 1347.72,642.28
             1351.72,646.29 1350.90,650.68 1345.96,653.24
             1340.71,655.96 1335.41,656.14 1330.01,653.79
             1330.01,653.79 1324.58,650.81 1324.58,650.81
             1321.65,649.57 1314.44,650.00 1311.00,650.00
             1314.12,657.57 1318.85,657.96 1326.00,659.51
             1337.53,662.01 1360.42,663.11 1363.48,648.00
             1366.30,634.07 1348.39,633.05 1339.00,633.00
             1333.96,632.97 1321.22,630.95 1323.66,623.09
             1325.86,615.98 1338.56,616.57 1344.00,618.95
             1353.48,623.11 1351.67,622.00 1362.00,622.00 Z
           M 877.00,626.00
           C 878.11,611.10 852.23,611.55 843.00,615.80
             843.00,615.80 832.00,622.00 832.00,622.00
             832.00,622.00 832.00,614.00 832.00,614.00
             832.00,614.00 821.00,614.00 821.00,614.00
             821.00,614.00 821.00,677.00 821.00,677.00
             821.00,677.00 832.00,677.00 832.00,677.00
             832.00,677.00 832.00,651.00 832.00,651.00
             835.81,651.65 835.92,651.75 838.00,655.00
             838.00,655.00 841.00,654.00 841.00,654.00
             841.00,654.00 840.00,657.00 840.00,657.00
             840.00,657.00 856.00,660.17 856.00,660.17
             856.00,660.17 862.00,659.12 862.00,659.12
             865.67,658.67 866.43,659.12 869.99,657.21
             874.02,655.05 878.90,648.32 879.88,643.83
             879.88,643.83 879.88,634.00 879.88,634.00
             879.97,629.85 880.47,628.61 877.00,626.00 Z
           M 911.00,614.00
           C 911.00,614.00 900.00,614.00 900.00,614.00
             900.00,614.00 900.00,659.00 900.00,659.00
             900.00,659.00 912.00,659.00 912.00,659.00
             910.08,651.10 910.16,633.26 913.99,626.04
             915.00,624.14 916.57,622.59 918.00,621.00
             913.00,620.15 912.21,618.82 911.00,614.00 Z
           M 1213.00,617.00
           C 1213.00,617.00 1214.00,617.00 1214.00,617.00
             1214.00,617.00 1213.00,618.00 1213.00,618.00
             1213.00,618.00 1213.00,617.00 1213.00,617.00 Z
           M 975.00,633.00
           C 975.13,628.96 975.52,625.41 978.47,622.30
             983.81,616.65 999.95,616.37 1005.66,621.50
             1010.69,626.01 1012.06,632.84 1003.00,633.00
             1003.00,633.00 986.00,633.00 986.00,633.00
             986.00,633.00 975.00,633.00 975.00,633.00 Z
           M 1122.00,634.00
           C 1117.06,616.39 1141.29,615.58 1149.00,620.15
             1152.34,622.13 1158.42,629.59 1152.69,632.40
             1150.95,633.25 1145.19,632.98 1143.00,633.25
             1143.00,633.25 1133.00,633.25 1133.00,633.25
             1127.04,633.12 1128.10,632.91 1122.00,634.00 Z
           M 848.00,619.52
           C 853.96,619.39 860.41,620.44 864.44,625.32
             870.35,632.47 870.97,653.94 849.00,652.96
             838.13,652.47 830.81,645.08 832.29,634.00
             832.64,631.38 833.28,628.42 834.87,626.26
             838.04,621.95 842.96,620.22 848.00,619.52 Z
           M 1000.00,625.00
           C 993.14,625.00 987.88,623.92 982.00,628.00
             982.00,628.00 1000.00,628.00 1000.00,628.00
             1000.00,628.00 1000.00,625.00 1000.00,625.00 Z
           M 1147.00,628.00
           C 1143.53,622.81 1132.30,624.42 1128.00,628.00
             1128.00,628.00 1147.00,628.00 1147.00,628.00 Z
           M 851.00,626.46
           C 848.00,626.71 843.83,626.91 841.45,628.89
             836.31,633.16 836.38,646.72 852.00,645.95
             863.86,645.37 865.01,627.46 851.00,626.46 Z
           M 1354.00,643.00
           C 1354.00,643.00 1355.00,643.00 1355.00,643.00
             1355.00,643.00 1354.00,644.00 1354.00,644.00
             1354.00,644.00 1354.00,643.00 1354.00,643.00 Z
           M 873.00,650.00
           C 873.00,650.00 874.00,650.00 874.00,650.00
             874.00,650.00 873.00,651.00 873.00,651.00
             873.00,651.00 873.00,650.00 873.00,650.00 Z" />
</svg>
